<?xml version="1.0" encoding="utf-8"?>
<!-- Generator: Adobe Illustrator 24.1.3, SVG Export Plug-In . SVG Version: 6.00 Build 0)  -->
<svg version="1.1" id="Layer_1" xmlns="http://www.w3.org/2000/svg" xmlns:xlink="http://www.w3.org/1999/xlink" x="0px" y="0px"
	 width="2060.7px" height="1532px" viewBox="0 0 2060.7 1532" enable-background="new 0 0 2060.7 1532" xml:space="preserve">
<g>
	<path fill="#E1BB72" d="M2002.5,3.6c14.4,0.5,28.9,0.9,43.3,1.4c1.3,0,2.7-0.2,4-0.4c-9.7,498-19.3,996-29,1494
		c-1.4,0.1-2.7,0.2-4.1,0.2c-20.6-1-41.2,0.7-61.8,0.7c-2-2-4.1-2.1-6.1,0c-13.8-1-27.5,1-41.2,1.2c-2-2-4.1-2.1-6.1,0
		c-12.4-1-24.7,1-37.1,1.2c-1.4-1.7-2.7-1.7-4.1,0c-11.7-1-23.4,1.2-35.1,1.3c-1.4-1.7-2.7-1.7-4.1,0c-11.1-0.9-22,1-33,1.3
		c-2.1-2-4.1-2.1-6.1,0.1c-10.4-1-20.6,1.1-31,1.3c-1.4-1.7-2.7-1.7-4.1,0c-10.4-0.9-20.6,1.1-30.9,1.3c-1.4-1.7-2.7-1.7-4.1,0
		c-10.4-0.9-20.6,1.1-30.9,1.3c-1.4-1.7-2.7-1.7-4.1,0c-11.1-0.9-22,1.4-33,1.3c-1.4-1.7-2.7-1.7-4.1,0c-11.7-0.9-23.4,1.3-35.1,1.3
		c-1.4-1.7-2.7-1.7-4.1,0c-12.4-1-24.7,1.3-37.1,1.2c-1.4-1.7-2.7-1.7-4.1,0c-13.8-1-27.5,1.1-41.2,1.2c-2-2-4.1-2.1-6.1,0
		c-14.5-1-28.9,0.9-43.3,1.1c-2-2-4.1-2.1-6.1,0c-14.5-1-28.9,0.9-43.3,1.1c-2-2-4.1-2.1-6.1,0c-14.5-1-28.9,0.9-43.3,1.1
		c-2-2-4.1-2.1-6.1,0c-14.5-1.1-28.8,1.2-43.3,1.1c-1.4-1.7-2.7-1.7-4.1,0c-13.8-1-27.5,1-41.2,1.2c-1.4-1.7-2.7-1.7-4.1,0
		c-13.1-0.9-26.1,0.8-39.2,1.2c-2-2-4.1-2.1-6.1,0c-11.7-1-23.4,1.2-35.1,1.3c-1.4-1.7-2.7-1.7-4.1,0c-11.7-0.9-23.4,1.2-35.1,1.3
		c-1.4-1.7-2.7-1.7-4.1,0c-11.1-1-22,1.4-33,1.3c-1.4-1.7-2.7-1.7-4.1,0c-11.1-1-22,1.4-33,1.3c-1.4-1.7-2.7-1.7-4.1,0
		c-11.1-1-22,1.3-33,1.3c-1.4-1.7-2.7-1.7-4.1,0c-11.1-1-22,1.4-33,1.3c-1.4-1.7-2.7-1.7-4.1,0c-11.1-0.9-22,1-33,1.3
		c-1.4-1.7-2.7-1.7-4.1,0c-11.7-0.9-23.4,1.2-35.1,1.3c-1.4-1.7-2.7-1.7-4.1,0c-13.1-0.9-26.1,1.3-39.2,1.2c-2-2-4.1-2.1-6.1,0
		c-10.8-0.1-21.5-0.6-32.3,0.6c-7,0.8-14.2,0.2-21.3,0.2c-2.7-2.2-5.4-2.3-8.2-0.1c-13.6-0.2-27.2-1.1-40.7-0.3
		c-11.9,0.7-23.7,0.3-35.5,0.8c-3.4-2.3-6.8-2.4-10.3-0.1c-13.9,0-27.7-0.9-41.6,0.6c-7.4,0.8-14.9,0.2-22.3,0.2
		c-2.7-2.2-5.4-2.3-8.2-0.1c-11.5-0.2-23.1-1.1-34.6-0.3c-15.3,1.1-30.5,0.1-45.7,0.6c-0.6-0.4-1.1-1-1.7-1.1
		c-9.1-1-18.3-1.2-27.4-0.5c-0.6,0.1-1.2,0.7-1.7,1c-35.6-0.7-71.1-1.4-106.7-2.1c-42.4-0.8-84.8-2-127.2-2
		c-15.3,0-30.7,0.2-46.1,0.6c-2.7-2.2-5.4-2.3-8.2-0.1c-13.2-0.1-26.3-0.8-39.5,0.6c-6.7,0.7-13.5,0.2-20.3,0.2
		c-2.7-2.2-5.4-2.3-8.2-0.1c-14.3,0-28.6-0.6-43,0.4c-10.1,0.7-20.5,0.7-30.7-1.3c-4.3-0.8-8.9-0.6-13.3-0.9
		c-8.2-0.5-16.2-2.3-24-4.9c-5.5-1.9-10.6-4.6-14.7-9.1c-5.6-6.2-6.9-13-4-20.9c2.2-5.9,5.8-10.8,10.1-15.3
		c10.5-11,22.9-19.4,36.1-26.8c11.6-6.5,23.5-12.5,35.3-18.8c5.1-2.7,10.1-5.6,15.2-8.4c1.8-0.5,1.9-1.2,0.2-2.1
		c-14.1-5.7-28.9-8.3-43.8-10.9c-18.2-3.2-36.6-5.3-54.6-9.4c-7.4-1.7-14.6-3.8-21.6-6.6c-5.1-2-9.9-4.6-14.4-7.9
		c-15.1-11-18.7-26.4-9.3-43.4c3.8-6.9,8.7-13.1,14.2-18.8c14.2-14.7,31-25.9,48.7-35.8c37.7-21.1,78.1-35,119.8-45.3
		c29.9-7.4,60.2-13.1,90.5-18.4c27.6-4.8,55.4-8.9,83.2-12.9c17.3-2.4,34.7-3.9,52-5.9c26.5-3.1,53-6.6,79.2-11.7
		c34.6-6.8,69.1-14,103.7-20.6c26.9-5.1,53.9-9.4,80.9-13.9c43.5-7.3,87.2-14.2,129.3-28.1c47.9-15.9,94.7-34.4,139.6-57.4
		c26.9-13.8,52.1-30.4,76.4-48.3c21.2-15.7,42.1-31.9,61.4-49.9c17-15.9,33.1-32.9,43.1-54.5c3.6-7.8,6.4-15.9,7.1-24.5
		c1.1-12.3-2.2-23.8-7.6-34.7c-8-16-20.1-28.4-34.6-38.6c-11-7.7-22.7-14.1-34.2-20.9c-7.1-4.2-13.8-8.9-19.5-15
		c-11-11.9-11.9-24-2.9-37.3c4.3-6.3,9.8-11.5,15.7-16.2c11.5-9.3,24-17.1,37-24.1c39.8-21.7,81.4-39.3,124.3-54.1
		c35.3-12.1,70.9-23.6,106.6-34.3c52.5-15.7,105.1-31.2,157.7-46.4c38.2-11,76.5-21.6,114.2-33.9c33.9-11,67.6-22.8,99.6-38.7
		c15.1-7.5,29.6-15.7,42.9-26.2c5.7-4.5,10.6-9.7,14.7-15.7c6.5-9.4,5.7-18.5-1.8-27.2c-5.2-6.1-11.7-10.6-18.6-14.4
		c-11.1-6.2-22.7-11.3-34.6-15.7c-31.2-11.5-63.3-20.1-95.4-28.5c-22.2-5.8-44.5-11.2-66.4-18.2c-27.5-8.8-54.2-19.6-77.4-37.4
		c-5.4-4.2-10.9-8.3-15.9-13c-15.6-14.6-34-24.3-54.4-30c-15.8-4.4-31.9-7.9-48.2-10c-14.3-1.8-28.4-4.4-42.6-6.2
		c-10.9-1.4-21.8-2.1-32.7-3.1c-1.3-1.7-2.6-1.8-4.1-0.2c-12-2.4-24.3-1.9-36.5-3.2c-11.8-1.2-23.6-2.1-35.5-2.2c-2-2-4-2.1-6.2-0.2
		c-16.5-0.8-32.8-3.3-49.4-2.9c-1.3-1.7-2.7-1.7-4.1-0.1c-13-0.8-26-3.1-39.1-2.8c-1.3-1.7-2.7-1.7-4.1-0.1
		c-20.1-1.8-40.2-3.3-60.2-5.5c-32.9-3.7-65.9-7.7-98-16.3c-24.9-6.7-48.7-16.3-70.4-30.5c-19.4-12.7-35.7-28.7-49.2-47.5
		c-3.8-5.3-7.5-10.6-11-16.1c-7-11-14.3-21.7-23.2-31.3c-7.2-7.8-12.6-17-14.9-27.7c-1.4-6.3,0.3-11.5,4.2-16.2
		c2.2-2.6,4.7-4.9,6.7-7.7c2.7-3.9,7.1-5.3,11.4-6.4c8.6-2.1,17.3-4.3,26-5.7c19.9-3.2,39.8-6.5,60-7.7c18.1-1.1,36.1-3.1,54.1-4.7
		c1.4,1.6,2.8,1.6,4.1-0.1c13.5-0.8,26.9-1.6,40.4-2.4c3-0.2,6.1-0.4,9.1-0.6c1.4,1.6,2.7,1.6,4.1,0c9,0.7,17.9-0.6,26.8-1.4
		c2.1,1.9,4.1,2,6.1-0.1c17.9-2.2,36-3.6,53.8-6.3c12.5-1.9,25.1-2.9,37.6-4.2c16.3-1.7,32.6-3.4,48.9-5.1c1.4,1.6,2.8,1.6,4.1-0.2
		c12.5-0.8,25.1-1.5,37.6-2.3c1.7-0.1,3.4-0.4,5.1-0.5c12.6-0.6,25.1-1.1,37.7-1.7c1.4,1.7,2.7,1.7,4.1,0c16.5-0.3,33-0.7,49.4-1
		c3.4,2.3,6.8,2.3,10.3,0.1c15.6,0.2,31.3,1.3,46.9,0.4c16-0.9,31.9,0,47.8-0.5c2,1.8,4.4,1.6,6.8,1.7c26.3,0.5,52.7,1,79,1.5
		c2.4,0,4.8,0.3,6.8-1.4c43.9,1.4,87.8,2.3,131.7,2.6c1.2,0.5,2.4,1.4,3.7,1.5c7.1,0.3,14.3,0.4,21.4,0.4c1.2,0,2.5-0.9,3.7-1.4
		c32.8,0.6,65.5,1.3,98.3,1.7c31.4,0.3,62.8,0.1,94.2,0.2c0.3,0,0.7,0,1,0c3.4,2.3,6.8,2.3,10.3,0.1c15.2,0,30.4,1.1,45.6-0.5
		c6.7-0.7,13.5-0.2,20.3-0.2c2.7,2.2,5.5,2.2,8.2,0.1c11.8,0.1,23.7,1,35.5,0.2c10.1-0.7,20.3-0.4,30.4-0.9
		C1998.4,5.5,2000.4,5.5,2002.5,3.6z"/>
	<path fill="#F7EEDD" d="M1492-0.1c-2,1.7-4.5,1.5-6.8,1.4c-26.3-0.5-52.7-1-79-1.5c-2.4,0-4.8,0.1-6.8-1.7c2.8-3,6.4-1.8,9.6-1.8
		c21.1,0.3,42.1,0.8,63.2,1.2c4.8,0.1,9.5,0.2,14.3,0.3C1488.6-2.2,1490.6-1.9,1492-0.1z"/>
	<path fill="#F7EEDD" d="M546.2,1533.9c0.6-0.4,1.1-1,1.7-1c9.1-0.8,18.3-0.5,27.4,0.5c0.6,0.1,1.1,0.7,1.7,1.1
		c-1.1,0.6-2.3,1.7-3.4,1.7c-8,0-16-0.1-24-0.4C548.4,1535.6,547.3,1534.5,546.2,1533.9z"/>
	<path fill="#F7EEDD" d="M1652.5,2.9c-1.2,0.5-2.5,1.4-3.7,1.4c-7.1,0-14.3-0.1-21.4-0.4c-1.2,0-2.5-1-3.7-1.5
		c1.1-0.6,2.3-1.7,3.4-1.7c7.3,0,14.6,0.1,22,0.4C1650.3,1.2,1651.4,2.3,1652.5,2.9z"/>
	<path fill="#F7EEDD" d="M1856.3,4.8c-3.5,2.2-6.9,2.1-10.3-0.1C1849.5,1.8,1852.9,2,1856.3,4.8z"/>
	<path fill="#F7EEDD" d="M1304.7-1.8c-3.5,2.2-6.9,2.1-10.3-0.1C1297.9-4.7,1301.3-4.6,1304.7-1.8z"/>
	<path fill="#F7EEDD" d="M729.4,1533.3c3.4-2.3,6.9-2.2,10.3,0.1C736.2,1536.2,732.8,1536.1,729.4,1533.3z"/>
	<path fill="#F7EEDD" d="M190.1,1531.1c2.7-2.2,5.5-2.2,8.2,0.1C195.5,1533.9,192.8,1533.9,190.1,1531.1z"/>
	<path fill="#F7EEDD" d="M258,1530.3c2.8-2.2,5.5-2.1,8.2,0.1C263.5,1533.2,260.7,1533.1,258,1530.3z"/>
	<path fill="#F7EEDD" d="M657.4,1534c2.7-2.3,5.5-2.2,8.2,0.1C662.8,1536.8,660.1,1536.7,657.4,1534z"/>
	<path fill="#F7EEDD" d="M815.9,1532.9c2.8-2.2,5.5-2.1,8.2,0.1C821.3,1535.8,818.6,1535.7,815.9,1532.9z"/>
	<path fill="#F7EEDD" d="M1930.4,4.2c-2.8,2.2-5.5,2.1-8.2-0.1C1925,1.3,1927.7,1.4,1930.4,4.2z"/>
	<path fill="#F7EEDD" d="M2002.5,3.6c-2.1,2-4.1,1.9-6.2-0.1C1999.4,1,1999.5,1,2002.5,3.6z"/>
	<path fill="#F7EEDD" d="M1016.1,19.2c-2,2.2-4,2-6.1,0.1C1011.9,16.9,1014,16.9,1016.1,19.2z"/>
	<path fill="#F7EEDD" d="M877.7,1532.1c2-2.1,4.1-2,6.1,0C881.8,1534.5,879.7,1534.5,877.7,1532.1z"/>
	<path fill="#F7EEDD" d="M1225.8,1520.4c2-2.1,4.1-2,6.1,0C1229.9,1522.8,1227.9,1522.8,1225.8,1520.4z"/>
	<path fill="#F7EEDD" d="M1363.8,1516.8c2.1-2,4.1-2,6.1,0C1367.9,1519.3,1365.8,1519.3,1363.8,1516.8z"/>
	<path fill="#F7EEDD" d="M1413.2,1515.7c2.1-2,4.1-2,6.1,0C1417.3,1518.2,1415.3,1518.2,1413.2,1515.7z"/>
	<path fill="#F7EEDD" d="M1462.7,1514.6c2-2.1,4.1-2,6.1,0C1466.8,1517.1,1464.7,1517.1,1462.7,1514.6z"/>
	<path fill="#F7EEDD" d="M1512.1,1513.5c2-2.1,4.1-2,6.1,0C1516.2,1516,1514.1,1516,1512.1,1513.5z"/>
	<path fill="#F7EEDD" d="M1782,1504.4c2-2.1,4.1-2,6.1-0.1C1786.1,1506.8,1784,1506.8,1782,1504.4z"/>
	<path fill="#F7EEDD" d="M1186.6,253.3c2.1-1.9,4.2-1.8,6.2,0.2C1189.6,255.8,1189.6,255.8,1186.6,253.3z"/>
	<path fill="#F7EEDD" d="M1901.4,1500.5c2-2.1,4.1-2,6.1,0C1905.5,1502.9,1903.5,1503,1901.4,1500.5z"/>
	<path fill="#F7EEDD" d="M1948.8,1499.4c2.1-2,4.1-2,6.1,0C1952.9,1501.8,1950.8,1501.8,1948.8,1499.4z"/>
	<path fill="#F7EEDD" d="M1089.9,247.4c1.4-1.6,2.8-1.6,4.1,0.1C1092.6,249.5,1091.2,249.4,1089.9,247.4z"/>
	<path fill="#F7EEDD" d="M1133.1,250.3c1.4-1.6,2.8-1.6,4.1,0.1C1135.8,252.4,1134.4,252.3,1133.1,250.3z"/>
	<path fill="#F7EEDD" d="M1245-0.9c-1.4,1.7-2.7,1.6-4.1,0C1242.3-2.9,1243.6-2.9,1245-0.9z"/>
	<path fill="#F7EEDD" d="M1160.5,3.5c-1.3,1.7-2.7,1.7-4.1,0.2C1157.7,1.8,1159,1.6,1160.5,3.5z"/>
	<path fill="#F7EEDD" d="M983.1,20.8c-1.4,1.7-2.7,1.6-4.1,0C980.4,18.8,981.7,18.8,983.1,20.8z"/>
	<path fill="#F7EEDD" d="M1264.7,259c1.5-1.5,2.8-1.5,4.1,0.2C1267.3,261.1,1265.9,261,1264.7,259z"/>
	<path fill="#F7EEDD" d="M923,1530.9c1.4-1.7,2.7-1.7,4.1,0C925.7,1532.8,924.3,1532.9,923,1530.9z"/>
	<path fill="#F7EEDD" d="M962.1,1529.6c1.4-1.7,2.7-1.7,4.1,0C964.8,1531.5,963.5,1531.6,962.1,1529.6z"/>
	<path fill="#F7EEDD" d="M999.2,1528.3c1.4-1.7,2.7-1.7,4.1,0C1001.9,1530.2,1000.6,1530.3,999.2,1528.3z"/>
	<path fill="#F7EEDD" d="M1036.3,1527c1.4-1.7,2.7-1.7,4.1,0C1039,1528.9,1037.6,1528.9,1036.3,1527z"/>
	<path fill="#F7EEDD" d="M1073.4,1525.6c1.3-1.7,2.7-1.7,4.1,0C1076.1,1527.5,1074.7,1527.6,1073.4,1525.6z"/>
	<path fill="#F7EEDD" d="M1110.5,1524.3c1.3-1.7,2.7-1.7,4.1,0C1113.2,1526.2,1111.8,1526.2,1110.5,1524.3z"/>
	<path fill="#F7EEDD" d="M1147.5,1522.9c1.3-1.7,2.7-1.7,4.1,0C1150.3,1524.8,1148.9,1524.9,1147.5,1522.9z"/>
	<path fill="#F7EEDD" d="M1186.7,1521.6c1.4-1.7,2.7-1.7,4.1,0C1189.4,1523.6,1188,1523.6,1186.7,1521.6z"/>
	<path fill="#F7EEDD" d="M1271.1,1519.1c1.4-1.7,2.7-1.6,4.1,0C1273.8,1521.1,1272.5,1521.1,1271.1,1519.1z"/>
	<path fill="#F7EEDD" d="M1316.4,1517.9c1.4-1.7,2.7-1.7,4.1,0C1319.1,1519.9,1317.8,1519.9,1316.4,1517.9z"/>
	<path fill="#F7EEDD" d="M929.5,23.8c-1.3,1.7-2.7,1.7-4.1,0.1C926.7,22,928.1,21.8,929.5,23.8z"/>
	<path fill="#F7EEDD" d="M1860.2,1501.8c1.4-1.7,2.7-1.7,4.1,0C1863,1503.7,1861.6,1503.7,1860.2,1501.8z"/>
	<path fill="#F7EEDD" d="M1559.5,1512.4c1.4-1.7,2.7-1.7,4.1,0C1562.2,1514.3,1560.8,1514.4,1559.5,1512.4z"/>
	<path fill="#F7EEDD" d="M1600.7,1511.1c1.3-1.7,2.7-1.7,4.1,0C1603.4,1513,1602,1513.1,1600.7,1511.1z"/>
	<path fill="#F7EEDD" d="M1639.8,1509.8c1.4-1.7,2.7-1.7,4.1,0C1642.5,1511.8,1641.2,1511.8,1639.8,1509.8z"/>
	<path fill="#F7EEDD" d="M1676.9,1508.5c1.4-1.7,2.7-1.7,4.1,0C1679.6,1510.4,1678.2,1510.5,1676.9,1508.5z"/>
	<path fill="#F7EEDD" d="M1711.9,1507.1c1.3-1.7,2.7-1.7,4.1,0C1714.6,1509,1713.3,1509.1,1711.9,1507.1z"/>
	<path fill="#F7EEDD" d="M1746.9,1505.8c1.3-1.7,2.7-1.7,4.1,0C1749.7,1507.6,1748.3,1507.7,1746.9,1505.8z"/>
	<path fill="#F7EEDD" d="M1821.1,1503c1.4-1.7,2.7-1.6,4.1,0C1823.8,1505,1822.4,1505,1821.1,1503z"/>
	<path fill="#F7EEDD" d="M157.3,1423.1c1.6,0.9,1.6,1.6-0.2,2.1C157.1,1424.5,157.2,1423.8,157.3,1423.1z"/>
</g>
</svg>
