<?xml version="1.0" encoding="utf-8"?>
<!-- Generator: Adobe Illustrator 24.2.0, SVG Export Plug-In . SVG Version: 6.00 Build 0)  -->
<svg version="1.1" id="Layer_1" xmlns="http://www.w3.org/2000/svg" xmlns:xlink="http://www.w3.org/1999/xlink" x="0px" y="0px"
	 viewBox="0 0 1280 735" style="enable-background:new 0 0 1280 735;" xml:space="preserve">
<g transform="translate(0.000000,735.000000) scale(0.100000,-0.100000)">
	<path d="M8165,7339c-426.3-63.2-699.4-25.6-895-394c-315-553.9-803.4-1316.7-1421-1257.1c-142.8,81.8-322.5,656.9-508,552
		c-12.3,100.1-47.1,230.1-83,50c-969.6-1227.4,560.6-1574.3-2481-1485C1513.1,3976.7,254,1485.6,21.8,20.1
		C80.4-70.8,159.2,215.2,231,182c42.3-33.2,123.8,168.2,175,177.1c54.5-66.1,189.3,246.1,301,377c113.5,31.1,243.4,361.2,355,427.9
		c105.7,26.3,203.3,197.4,303,313c59.3,121.5,121.5-7.4,193.9,182.1c56.3,69.9,142.7,227.4,211,256c43.7-7.2,60.2,55.5,89.1,75
		c238.1,259.9,433.9,461.3,814,664c243.5,111.9,200.3,61.3,365,131c26.6,25.7,124.4-35,134,20c48.4,77.1,136.8,6.9,168,59
		c5.4,46.3,95.4-6.6,110,36c17,22,21,23,80,13c59-9.7,84.2-9.5,84,29c-0.9,31.8,94.7-38.3,106,13c22.5,41.5,83.6,13.8,130,35
		c64.5,13.7,145.8,16.5,197,29c81-36.5,47.6,36,108,25c39.4,15.2,134.4,2.2,168,16.9c32,27.1,139.4-20.5,167,23.1
		c-4.1,24.9,143.8-38.7,130,11c215.8,88.8,567,134.9,847,211c603.9,105.6,905-998.5,1204-1483c172.4-260,575.1,98.8,764,66
		c29.3-34.2,49.8,64.1,55,89.9c118.2,175.5,311.8,275.2,127,495c-217.3,428.4-757.1,1308.5-549.1,1655c24.1,32,30.1,36,38.1,23
		c72.8-62.7,128.9,123.3,179,106c86.9-5,121,141.8,191,181c102.3,81.1,209.1,282.3,282,344c21.5-82.1,100.6,121.9,144,127
		c39.2-8.2,127.1,146,169,165c35.7,23.6,142.3,81.8,159,124c27.5,29.3,116.8,70.2,110,125c0,19,0,19,13,1
		c31.1-40.4,148.8,5.9,137,61c22.2,93.3,153.9,43.1,175,135c1.5,48.1,64.8,10.9,71,53c4,19,11,23,42,22c33-1,37,2,40,27
		c26.7,55.3,118.9-35.4,112,74c-3.2,67.8,80.5-4.8,95,63c14.4,35.4,47.6-11.5,83,2c104.5,22.7-54.5,88.4,116,76
		c116.5,13.9,166.5,19.4,141.9,117c102.7-41.5,299.4-62.7,243.1,29c-5.7,25.1-45.3,31.9,7,23c255.6-74.1,460.4-25.4,638,36
		c227.5,49.2,755.9,75.9,898.1,164.9c-3,15-18,16,216-8c240-23,292-27,292-20c-60.4,31.9-31.9,20,101,23c200.9-2.8,131.4,4.5,72,33
		c336.8-51.4,435.6,49.6,787,5c147-16,206,9,162,68c-27.3,112.7-15.4,85-266,220C11391.5,7064.1,9505.1,7399.8,8165,7339z"/>
</g>
</svg>
