<?xml version="1.0" encoding="utf-8"?>
<!-- Generator: Adobe Illustrator 24.1.3, SVG Export Plug-In . SVG Version: 6.00 Build 0)  -->
<svg version="1.1" id="Layer_1" xmlns="http://www.w3.org/2000/svg" xmlns:xlink="http://www.w3.org/1999/xlink" x="0px" y="0px"
	 viewBox="0 0 1753 1581.4" enable-background="new 0 0 1753 1581.4" xml:space="preserve">
<g>
	<path fill="#2F4B5D" d="M0,47.9C357.1,22.8,715.1-4.7,1073.4,0.7c92.2,1.8,184.4,5.8,276.5,10.5c28.1,1.8,82,1.6,75.3,42.5
		c-22,76-80.1,139.5-90.8,219.4c-8.8,57.8,45,91.6,89.8,114.3c31.8,16.9,63.7,33.6,94.8,51.7c336.3,184.4,307.4,520.3-69.9,619.2
		c-218.3,65-470,68.9-651.7,220.9c-54.8,46.8-75.7,114.9-87.4,183.6c-8.3,44.1-28.2,85.2-57.6,118.6c-217.5,0-435,0-652.5,0
		C0,1070.2,0,559.1,0,47.9z"/>
</g>
</svg>
